<?xml version="1.0" encoding="utf-8"?>
<!-- Generator: Adobe Illustrator 22.0.0, SVG Export Plug-In . SVG Version: 6.00 Build 0)  -->
<svg version="1.1" id="logotype" xmlns="http://www.w3.org/2000/svg" xmlns:xlink="http://www.w3.org/1999/xlink" x="0px" y="0px"
	 viewBox="0 0 903.1 197.5" style="enable-background:new 0 0 903.1 197.5;" xml:space="preserve">
<style type="text/css">
	.st0{fill:#E50A0A;}
	.st1{fill:#FFFFFF;}
</style>
<g>
	<g>
		<rect x="507.7" y="0" class="st0" width="31" height="36.2"/>
		<polygon class="st0" points="207.1,77.1 249.7,12.6 292.3,77.1 328.4,77.1 277.9,0 221.5,0 171,77.1 		"/>
		<polygon class="st0" points="443,138.8 410.5,175.3 377.9,138.8 338.3,138.8 390.7,197.5 430.3,197.5 482.7,138.8 		"/>
		<g id="XMLID_1_">
			<path id="XMLID_4_" class="st0" d="M575.4,197.5V77.2L651,146l74.2-68.8v120.3l-30.1,0v-54.7l-43.5,41.9h-1.4l-44.9-41.9v54.7
				L575.4,197.5z"/>
		</g>
	</g>
	<g>
		<g id="XMLID_88_">
			<g id="XMLID_1321_">
				<polygon id="XMLID_1322_" class="st1" points="824.4,39.7 745.7,159.9 781.7,159.9 824.4,95.4 867,159.9 903.1,159.9 				"/>
			</g>
			<g id="XMLID_1318_">
				<path id="XMLID_1319_" class="st1" d="M0,159.9V39.7l75.6,68.8l74.2-68.8v120.3l-30.1,0v-54.7l-43.5,41.9h-1.4l-44.9-41.9v54.7
					L0,159.9z"/>
			</g>
		</g>
		<rect x="507.7" y="58.4" class="st1" width="31" height="117.4"/>
		<polygon class="st1" points="171,197.5 207.1,197.5 249.7,132.9 292.3,197.5 328.4,197.5 249.7,77.2 		"/>
		<polygon class="st1" points="443,0.1 410.5,36.6 377.9,0.1 338.3,0.1 390.7,58.8 338.3,117.6 377.9,117.6 410.5,81.1 443,117.6 
			482.7,117.6 430.3,58.8 482.7,0.1 		"/>
		<polygon class="st1" points="669,0 651,16.7 632.7,0 575.4,0 575.4,68.1 605.3,68.1 605.3,13.4 650.3,55.3 651.7,55.3 695.2,13.4 
			695.2,68.1 725.3,68.1 725.3,0 		"/>
	</g>
</g>
</svg>
