<?xml version="1.0" encoding="utf-8"?>
<!-- Generator: Adobe Illustrator 22.0.0, SVG Export Plug-In . SVG Version: 6.00 Build 0)  -->
<svg version="1.1" id="logotype" xmlns="http://www.w3.org/2000/svg" xmlns:xlink="http://www.w3.org/1999/xlink" x="0px" y="0px"
	 viewBox="0 0 1200 494.4" style="enable-background:new 0 0 1200 494.4;" xml:space="preserve">
<style type="text/css">
	.st0{opacity:0;}
	.st1{fill:#FFFFFF;}
	.st2{fill:#E50A0A;}
	.st3{fill:#131215;}
</style>
<g id="bg" class="st0">
	<rect class="st1" width="1200" height="494.4"/>
</g>
<g>
	<g>
		<rect x="656.2" y="148.5" class="st2" width="31" height="36.2"/>
		<polygon class="st2" points="355.6,225.6 398.2,161.1 440.8,225.6 476.9,225.6 426.4,148.5 370,148.5 319.5,225.6 		"/>
		<polygon class="st2" points="591.5,287.3 559,323.8 526.4,287.3 486.8,287.3 539.2,346 578.8,346 631.2,287.3 		"/>
		<g id="XMLID_6_">
			<path id="XMLID_7_" class="st2" d="M723.9,346V225.7l75.6,68.8l74.2-68.8V346l-30.1,0v-54.7l-43.5,41.9h-1.4l-44.9-41.9V346
				L723.9,346z"/>
		</g>
	</g>
	<g>
		<g id="XMLID_1_">
			<g id="XMLID_4_">
				<polygon id="XMLID_5_" class="st3" points="972.9,188.2 894.2,308.4 930.2,308.4 972.9,243.9 1015.5,308.4 1051.6,308.4 				"/>
			</g>
			<g id="XMLID_2_">
				<path id="XMLID_3_" class="st3" d="M148.5,308.4V188.2l75.6,68.8l74.2-68.8v120.3l-30.1,0v-54.7l-43.5,41.9h-1.4l-44.9-41.9
					v54.7L148.5,308.4z"/>
			</g>
		</g>
		<rect x="656.2" y="206.9" class="st3" width="31" height="117.4"/>
		<polygon class="st3" points="319.5,346 355.6,346 398.2,281.4 440.8,346 476.9,346 398.2,225.7 		"/>
		<polygon class="st3" points="591.5,148.6 559,185.1 526.4,148.6 486.8,148.6 539.2,207.3 486.8,266.1 526.4,266.1 559,229.6 
			591.5,266.1 631.2,266.1 578.8,207.3 631.2,148.6 		"/>
		<polygon class="st3" points="817.5,148.5 799.5,165.2 781.2,148.5 723.9,148.5 723.9,216.6 753.8,216.6 753.8,161.9 798.8,203.8 
			800.2,203.8 843.7,161.9 843.7,216.6 873.8,216.6 873.8,148.5 		"/>
	</g>
</g>
</svg>
