<?xml version="1.0" encoding="utf-8"?>
<!-- Generator: Adobe Illustrator 22.0.0, SVG Export Plug-In . SVG Version: 6.00 Build 0)  -->
<svg version="1.1" id="logotype" xmlns="http://www.w3.org/2000/svg" xmlns:xlink="http://www.w3.org/1999/xlink" x="0px" y="0px"
	 viewBox="0 0 1200 578.9" style="enable-background:new 0 0 1200 578.9;" xml:space="preserve">
<style type="text/css">
	.st0{opacity:0;}
	.st1{fill:#FFFFFF;}
</style>
<g id="bg" class="st0">
	<rect class="st1" width="1200" height="578.9"/>
</g>
<g>
	<g>
		<g>
			<rect x="656.2" y="148.5" class="st1" width="31" height="36.2"/>
			<polygon class="st1" points="355.6,225.6 398.2,161.1 440.8,225.6 476.9,225.6 426.4,148.5 370,148.5 319.5,225.6 			"/>
			<polygon class="st1" points="591.5,287.3 559,323.8 526.4,287.3 486.8,287.3 539.2,346 578.8,346 631.2,287.3 			"/>
			<g id="XMLID_12_">
				<path id="XMLID_13_" class="st1" d="M723.9,346V225.7l75.6,68.8l74.2-68.8V346h-30.1v-54.7l-43.5,41.9h-1.4l-44.9-41.9V346
					H723.9z"/>
			</g>
		</g>
		<g>
			<g id="XMLID_1_">
				<g id="XMLID_4_">
					<polygon id="XMLID_8_" class="st1" points="972.9,188.2 894.2,308.4 930.2,308.4 972.9,243.9 1015.5,308.4 1051.6,308.4 					
						"/>
				</g>
				<g id="XMLID_2_">
					<path id="XMLID_3_" class="st1" d="M148.5,308.4V188.2l75.6,68.8l74.2-68.8v120.3h-30.1v-54.7l-43.5,41.9h-1.4l-44.9-41.9v54.7
						L148.5,308.4z"/>
				</g>
			</g>
			<rect x="656.2" y="206.9" class="st1" width="31" height="117.4"/>
			<polygon class="st1" points="319.5,346 355.6,346 398.2,281.4 440.8,346 476.9,346 398.2,225.7 			"/>
			<polygon class="st1" points="591.5,148.6 559,185.1 526.4,148.6 486.8,148.6 539.2,207.3 486.8,266.1 526.4,266.1 559,229.6 
				591.5,266.1 631.2,266.1 578.8,207.3 631.2,148.6 			"/>
			<polygon class="st1" points="817.5,148.5 799.5,165.2 781.2,148.5 723.9,148.5 723.9,216.6 753.8,216.6 753.8,161.9 798.8,203.8 
				800.2,203.8 843.7,161.9 843.7,216.6 873.8,216.6 873.8,148.5 			"/>
		</g>
	</g>
	<g>
		<g id="XMLID_9_">
			<rect id="XMLID_11_" x="833.3" y="404.3" class="st1" width="218.2" height="5.6"/>
			<rect id="XMLID_10_" x="148.5" y="404.3" class="st1" width="207.7" height="5.6"/>
		</g>
		<g>
			<path class="st1" d="M380.1,407.1c0-13.7,10.1-24.2,23.1-24.2c11.7,0,21.1,7.8,22.8,19.3h-7.6c-1.3-7.5-7.4-12.9-15.1-12.9
				c-9.2,0-15.7,7.5-15.7,17.8c0,10.5,6.5,17.9,15.7,17.9c7.7,0,13.8-5.4,15.1-12.9h7.6c-1.8,11.6-11.1,19.4-22.8,19.4
				C390.2,431.5,380.1,420.9,380.1,407.1z"/>
			<path class="st1" d="M430.7,407.1c0-13.8,10.2-24.2,23.7-24.2s23.7,10.5,23.7,24.2c0,13.8-10.2,24.4-23.7,24.4
				C440.9,431.5,430.7,420.9,430.7,407.1z M470.7,407.1c0-10-6.4-17.8-16.3-17.8s-16.3,7.8-16.3,17.8s6.4,17.9,16.3,17.9
				C464.3,425,470.7,417.1,470.7,407.1z"/>
			<path class="st1" d="M492.1,394.8v35.7h-6.6v-46.7h8.8l15.7,37.9l15.6-37.9h8.8v46.7h-6.6v-35.8L513,430.5h-6.1L492.1,394.8z"/>
			<path class="st1" d="M551.7,414.2v16.3h-7.2v-46.7h16.2c10.5,0,17.2,5.3,17.2,15.1c0,9.8-6.8,15.3-17.2,15.3L551.7,414.2
				L551.7,414.2z M551.7,389.8v18.3h9c6.3,0,10.1-3.4,10.1-9.2c0-5.8-3.8-9.1-10.1-9.1L551.7,389.8L551.7,389.8z"/>
			<path class="st1" d="M585.1,430.5v-46.7h7.2V424h21.1v6.4h-28.3V430.5z"/>
			<path class="st1" d="M620.4,430.5v-46.7h7.2v46.7H620.4z"/>
			<path class="st1" d="M665.6,418.9h-20.2l-4.3,11.6h-7.2l17.9-46.7h7.9l17.7,46.7h-7.6L665.6,418.9z M647.6,413.1h15.9l-7.9-21.5
				L647.6,413.1z"/>
			<path class="st1" d="M690.5,394v36.5h-6.6v-46.7h7.8l24,35.5v-35.5h6.6v46.7h-7.2L690.5,394z"/>
			<path class="st1" d="M729.6,407.1c0-13.7,10.1-24.2,23.1-24.2c11.7,0,21.1,7.8,22.8,19.3h-7.6c-1.3-7.5-7.4-12.9-15.1-12.9
				c-9.2,0-15.7,7.5-15.7,17.8c0,10.5,6.5,17.9,15.7,17.9c7.7,0,13.8-5.4,15.1-12.9h7.6c-1.8,11.6-11.1,19.4-22.8,19.4
				C739.7,431.5,729.6,420.9,729.6,407.1z"/>
			<path class="st1" d="M812.5,430.5h-29.6v-46.7H812v6.2h-22v13.3h20v6.2h-20v14.7h22.4L812.5,430.5L812.5,430.5z"/>
		</g>
	</g>
</g>
</svg>
