<?xml version="1.0" encoding="utf-8"?>
<!-- Generator: Adobe Illustrator 22.0.0, SVG Export Plug-In . SVG Version: 6.00 Build 0)  -->
<svg version="1.1" id="logotype" xmlns="http://www.w3.org/2000/svg" xmlns:xlink="http://www.w3.org/1999/xlink" x="0px" y="0px"
	 viewBox="0 0 903.1 283" style="enable-background:new 0 0 903.1 283;" xml:space="preserve">
<style type="text/css">
	.st0{fill:#FFFFFF;}
</style>
<g>
	<g>
		<rect x="507.7" class="st0" width="31" height="36.2"/>
		<polygon class="st0" points="207.1,77.1 249.7,12.6 292.3,77.1 328.4,77.1 277.9,0 221.5,0 171,77.1 		"/>
		<polygon class="st0" points="443,138.8 410.5,175.3 377.9,138.8 338.3,138.8 390.7,197.5 430.3,197.5 482.7,138.8 		"/>
		<g id="XMLID_1_">
			<path id="XMLID_4_" class="st0" d="M575.4,197.5V77.2L651,146l74.2-68.8v120.3h-30.1v-54.7l-43.5,41.9h-1.4l-44.9-41.9v54.7
				L575.4,197.5z"/>
		</g>
	</g>
	<g>
		<g id="XMLID_88_">
			<g id="XMLID_1321_">
				<polygon id="XMLID_1322_" class="st0" points="824.4,39.7 745.7,159.9 781.7,159.9 824.4,95.4 867,159.9 903.1,159.9 				"/>
			</g>
			<g id="XMLID_1318_">
				<path id="XMLID_1319_" class="st0" d="M0,159.9V39.7l75.6,68.8l74.2-68.8V160h-30.1v-54.7l-43.5,41.9h-1.4l-44.9-41.9V160
					L0,159.9z"/>
			</g>
		</g>
		<rect x="507.7" y="58.4" class="st0" width="31" height="117.4"/>
		<polygon class="st0" points="171,197.5 207.1,197.5 249.7,132.9 292.3,197.5 328.4,197.5 249.7,77.2 		"/>
		<polygon class="st0" points="443,0.1 410.5,36.6 377.9,0.1 338.3,0.1 390.7,58.8 338.3,117.6 377.9,117.6 410.5,81.1 443,117.6 
			482.7,117.6 430.3,58.8 482.7,0.1 		"/>
		<polygon class="st0" points="669,0 651,16.7 632.7,0 575.4,0 575.4,68.1 605.3,68.1 605.3,13.4 650.3,55.3 651.7,55.3 695.2,13.4 
			695.2,68.1 725.3,68.1 725.3,0 		"/>
	</g>
</g>
<g>
	<g id="XMLID_9_">
		<rect id="XMLID_11_" x="684.8" y="255.8" class="st0" width="218.2" height="5.6"/>
		<rect id="XMLID_10_" y="255.8" class="st0" width="207.7" height="5.6"/>
	</g>
	<g>
		<path class="st0" d="M231.6,258.6c0-13.7,10.1-24.2,23.1-24.2c11.7,0,21.1,7.8,22.8,19.3h-7.6c-1.3-7.5-7.4-12.9-15.1-12.9
			c-9.2,0-15.7,7.5-15.7,17.8c0,10.5,6.5,17.9,15.7,17.9c7.7,0,13.8-5.4,15.1-12.9h7.6c-1.8,11.6-11.1,19.4-22.8,19.4
			C241.7,283,231.6,272.4,231.6,258.6z"/>
		<path class="st0" d="M282.2,258.6c0-13.8,10.2-24.2,23.7-24.2s23.7,10.5,23.7,24.2c0,13.8-10.2,24.4-23.7,24.4
			C292.4,283,282.2,272.4,282.2,258.6z M322.2,258.6c0-10-6.4-17.8-16.3-17.8s-16.3,7.8-16.3,17.8s6.4,17.9,16.3,17.9
			C315.8,276.5,322.2,268.6,322.2,258.6z"/>
		<path class="st0" d="M343.6,246.3V282H337v-46.7h8.8l15.7,37.9l15.6-37.9h8.8V282h-6.6v-35.8L364.5,282h-6.1L343.6,246.3z"/>
		<path class="st0" d="M403.2,265.7V282H396v-46.7h16.2c10.5,0,17.2,5.3,17.2,15.1s-6.8,15.3-17.2,15.3H403.2z M403.2,241.3v18.3h9
			c6.3,0,10.1-3.4,10.1-9.2s-3.8-9.1-10.1-9.1H403.2z"/>
		<path class="st0" d="M436.6,282v-46.7h7.2v40.2h21.1v6.4h-28.3V282z"/>
		<path class="st0" d="M471.9,282v-46.7h7.2V282H471.9z"/>
		<path class="st0" d="M517.1,270.4h-20.2l-4.3,11.6h-7.2l17.9-46.7h7.9l17.7,46.7h-7.6L517.1,270.4z M499.1,264.6H515l-7.9-21.5
			L499.1,264.6z"/>
		<path class="st0" d="M542,245.5V282h-6.6v-46.7h7.8l24,35.5v-35.5h6.6V282h-7.2L542,245.5z"/>
		<path class="st0" d="M581.1,258.6c0-13.7,10.1-24.2,23.1-24.2c11.7,0,21.1,7.8,22.8,19.3h-7.6c-1.3-7.5-7.4-12.9-15.1-12.9
			c-9.2,0-15.7,7.5-15.7,17.8c0,10.5,6.5,17.9,15.7,17.9c7.7,0,13.8-5.4,15.1-12.9h7.6c-1.8,11.6-11.1,19.4-22.8,19.4
			C591.2,283,581.1,272.4,581.1,258.6z"/>
		<path class="st0" d="M664,282h-29.6v-46.7h29.1v6.2h-22v13.3h20v6.2h-20v14.7H664V282z"/>
	</g>
</g>
</svg>
