<?xml version="1.0" encoding="utf-8"?>
<!-- Generator: Adobe Illustrator 22.0.0, SVG Export Plug-In . SVG Version: 6.00 Build 0)  -->
<svg version="1.1" id="Layer_4_copy" xmlns="http://www.w3.org/2000/svg" xmlns:xlink="http://www.w3.org/1999/xlink" x="0px"
	 y="0px" viewBox="0 0 2100 1200" style="enable-background:new 0 0 2100 1200;" xml:space="preserve">
<style type="text/css">
	.st0{fill:#F2F2F4;}
	.st1{fill:#131215;}
	.st2{fill:#E50A0A;}
</style>
<rect class="st0" width="2100" height="1200"/>
<g>
	<path class="st1" d="M998.5,220.5L938.2,66.8l-60.5,153.7h-7.4L934.2,59h8.6l63.7,161.6h-8V220.5z M898.8,163.8H980l2.7,6.8h-89.3
		L898.8,163.8z"/>
	<path class="st1" d="M1098.4,220.5v-25c-3.2,8.3-8.4,14.9-15.9,19.8c-7.4,5-16,7.4-25.8,7.4c-12.2,0-21.8-3.1-29-9.2
		c-7.2-6.1-10.8-14.4-10.8-24.8c0-11.5,4.5-20.3,13.6-26.1c9.1-5.9,22.7-8.8,40.8-8.8c3.7,0,7.4,0.1,11,0.2
		c3.6,0.2,8.8,0.5,15.8,1.1v-11.5c0-11.5-2.9-20.6-8.7-27.1c-5.8-6.5-13.8-9.8-24.2-9.8c-11.1,0-20,3.3-26.6,9.9s-9.9,15.5-9.9,26.8
		h-7.2c0-8.7,1.8-16.2,5.4-22.6s8.7-11.4,15.2-15s14.1-5.4,22.8-5.4c12.9,0,22.9,3.7,30,11c7.1,7.4,10.7,17.6,10.7,30.8v78.1h-7.2
		V220.5z M1024.6,188.6c0,8.3,3,15,8.9,20.1c5.9,5.2,13.7,7.8,23.3,7.8c12.6,0,22.6-4,30.2-12c7.5-8,11.3-18.6,11.3-31.8v-11.5
		c-5.8-0.4-10.9-0.7-15.1-0.9c-4.2-0.1-8-0.2-11.5-0.2c-15.9,0-27.7,2.3-35.4,7C1028.5,171.6,1024.6,178.8,1024.6,188.6z"/>
	<path class="st1" d="M1240.2,176.2c0,14.1-4.7,25-14.2,32.7s-21.7,11.6-36.7,11.6h-52.7V59h48.8c15.1,0,26.8,3.6,35.1,10.7
		c8.2,7.1,12.4,17.3,12.4,30.5c0,8.1-2.5,15.5-7.4,22.2c-5,6.7-11.9,11.4-20.7,14.3c11.7,2.4,20.5,7.1,26.4,14.2
		C1237.2,157.8,1240.2,166.3,1240.2,176.2z M1185.3,66.8h-39.4v66.4h39.4c12.2,0,21.6-3,28.2-8.9c6.7-5.9,10-14,10-24.2
		c0-10.4-3.3-18.5-10-24.4S1197.4,66.8,1185.3,66.8z M1189.3,141.3h-43.4v71.3h43.4c12.9,0,23.1-3.2,30.5-9.6
		c7.4-6.4,11.1-15.3,11.1-26.9c0-11.1-3.7-19.7-11.1-25.8C1212.4,144.3,1202.2,141.3,1189.3,141.3z"/>
	<path class="st1" d="M1372.5,161.6c0,12.2-2.1,22.9-6.3,32.2c-4.2,9.3-10.2,16.5-17.9,21.5c-7.7,5-16.8,7.5-27.3,7.5
		c-9.6,0-18.3-2.7-26-8s-13.6-12.8-17.7-22.4v28.1h-8.5V59h9v72.7c3.6-10,9.3-17.8,17-23.2c7.7-5.4,16.5-8.1,26.2-8.1
		c10.5,0,19.6,2.6,27.2,7.7c7.7,5.1,13.6,12.2,17.9,21.4C1370.3,138.5,1372.5,149.3,1372.5,161.6z M1363.5,161.6
		c0-16.7-3.9-29.7-11.6-39.3c-7.7-9.5-18.3-14.3-31.6-14.3c-8.4,0-15.8,2.1-22.3,6.4s-11.5,10.4-15.2,18.2
		c-3.7,7.9-5.5,17.4-5.5,28.5c0,10.8,1.8,20.3,5.4,28.5s8.6,14.5,15.1,18.9c6.4,4.4,14,6.6,22.5,6.6c13.3,0,23.9-4.8,31.6-14.3
		S1363.5,178.2,1363.5,161.6z"/>
	<path class="st1" d="M1463.8,223.9c-11.1,0-21.4-2.1-30.9-6.4c-9.5-4.3-17.8-10.2-24.9-17.9s-12.5-16.6-16.4-26.9
		c-3.9-10.3-5.8-21.3-5.8-33.2c0-11.8,1.9-22.9,5.8-33.1s9.4-19.1,16.4-26.7c7-7.6,15.3-13.5,24.9-17.8c9.5-4.3,19.8-6.4,30.9-6.4
		c12.5,0,23.9,2.6,34.4,7.8s19.4,12.5,26.6,21.8c7.2,9.4,11.8,20.4,14,33h-11.5c-1.8-10.2-5.7-19.3-11.7-27.2s-13.4-14.2-22.3-18.8
		c-8.9-4.6-18.7-6.9-29.5-6.9c-9.6,0-18.5,1.9-26.7,5.6c-8.2,3.8-15.3,9-21.3,15.6c-6,6.7-10.7,14.5-14,23.5s-5,18.8-5,29.5
		s1.6,20.5,5,29.6c3.3,9.1,7.9,17,14,23.7c6,6.8,13.1,12,21.3,15.8c8.2,3.8,17.1,5.6,26.7,5.6c10.9,0,20.9-2.3,29.8-6.9
		c8.9-4.6,16.3-10.9,22.3-18.9c5.9-8,9.7-17.1,11.4-27.3h11.5c-2.1,12.5-6.7,23.4-13.8,32.9c-7.1,9.5-16,16.8-26.6,22.1
		S1476.3,223.9,1463.8,223.9z"/>
	<path class="st1" d="M1603.1,223c-10.1,0-18.9-2.6-26.7-7.8c-7.7-5.2-13.8-12.4-18.1-21.7c-4.4-9.3-6.5-20-6.5-32.2
		c0-12,2.2-22.6,6.5-31.7s10.4-16.3,18.1-21.5s16.6-7.8,26.7-7.8c8.8,0,16.7,1.8,23.6,5.5s12.7,9,17.3,15.9
		c4.6,6.9,7.7,15.2,9.2,24.8h-10.4c-2.1-11.8-6.6-21-13.6-27.6s-15.6-9.8-26-9.8c-8.1,0-15.2,2.2-21.4,6.6
		c-6.2,4.4-11,10.5-14.4,18.3c-3.5,7.8-5.2,16.9-5.2,27.2s1.7,19.5,5.2,27.6c3.4,8,8.2,14.3,14.4,18.7c6.1,4.4,13.3,6.6,21.4,6.6
		c10.5,0,19.2-3.3,26.2-10s11.5-15.9,13.6-27.6h10.1c-1.4,9.6-4.3,17.9-8.9,24.8c-4.6,6.9-10.4,12.2-17.4,16
		C1619.9,221.1,1612,223,1603.1,223z"/>
	<path class="st1" d="M1717.9,220.5h-42.3V59h42.3c17.4,0,32,3.4,43.9,10.2c11.8,6.8,20.8,16.2,26.9,28.2s9.1,26,9.1,41.9
		c0,15.5-3.1,29.3-9.3,41.5c-6.2,12.2-15.3,21.9-27.2,29C1749.3,217,1734.8,220.5,1717.9,220.5z M1687.3,68.9v141.8h30.6
		c14.7,0,27.1-3,37.2-9.1s17.8-14.5,23.1-25.2c5.2-10.7,7.9-23.1,7.9-37c0-14.2-2.6-26.6-7.8-37.1c-5.2-10.5-12.8-18.7-23-24.5
		c-10.1-5.9-22.6-8.8-37.5-8.8h-30.5V68.9z"/>
	<path class="st1" d="M1810.8,161.3c0-12.2,2.1-22.8,6.3-32.1c4.2-9.2,10.2-16.4,18-21.5s17-7.6,27.5-7.6c9.5,0,17.9,2.7,25.4,8
		s13.2,12.6,17.1,21.9V59h11v161.6h-10.6v-27.2c-3.9,9.3-9.6,16.5-17.2,21.7s-16.2,7.8-25.8,7.8c-10.5,0-19.7-2.5-27.5-7.7
		c-7.8-5.1-13.8-12.3-18-21.5C1812.9,184.4,1810.8,173.6,1810.8,161.3z M1821.8,161.3c0,16.4,3.7,29.1,11.3,38.4
		c7.5,9.2,17.6,13.8,30.4,13.8c8.6,0,16-2.2,22.3-6.5s11.1-10.5,14.5-18.3c3.4-7.9,5.1-17.1,5.1-27.8c0-10.6-1.8-19.8-5.3-27.6
		c-3.5-7.7-8.4-13.6-14.7-17.7c-6.3-4.1-13.6-6.1-21.8-6.1c-12.8,0-22.9,4.6-30.4,13.7C1825.6,132.5,1821.8,145.1,1821.8,161.3z"/>
</g>
<g>
	<path class="st1" d="M136.5,408.5v11.9H41.3V258.9h93.6v11.9H55.3v60.3h72.9V343H55.3v65.5L136.5,408.5L136.5,408.5z"/>
	<path class="st1" d="M207.6,422.9c-10.8,0-20.3-2.6-28.6-7.9c-8.3-5.2-14.7-12.6-19.2-22.1c-4.6-9.5-6.9-20.4-6.9-32.9
		c0-11.4,2.3-21.6,7-30.7c4.6-9.1,11-16.3,19.1-21.6c8.1-5.3,17.3-8,27.7-8c8.2,0,15.7,1.6,22.3,4.7s12.2,7.6,16.9,13.4
		c4.6,5.8,8.1,12.6,10.5,20.4c2.3,7.8,3.3,16.5,2.8,26.1h-99V355h85.3c-0.8-14.1-4.5-25.1-11.4-33c-6.8-7.9-16-11.8-27.6-11.8
		c-8,0-15,2.1-21,6.3c-6.1,4.2-10.8,10-14.3,17.4s-5.2,16.2-5.2,26.2c0,10.7,1.6,19.9,5,27.8c3.3,7.9,8.1,13.9,14.3,18.1
		s13.6,6.3,22.2,6.3c10.5,0,19.2-2.8,26.1-8.4c6.9-5.6,11.3-13.4,13.1-23.3h13.1c-2.6,12.9-8.5,23.2-17.8,30.8
		C232.5,419.1,221.1,422.9,207.6,422.9z"/>
	<path class="st1" d="M296.7,420.5h-15.5V258.9H373v13.5h-76.3V337h65.7v13.7h-65.7V420.5z"/>
	<path class="st1" d="M414.1,420.5h-14.6V314.3h-28.1v-12.2h28.1v-11.3c0-10.9,2.8-19.3,8.4-25s13.5-8.6,23.7-8.6
		c2.7,0,5.2,0.2,7.4,0.6c2.3,0.4,4.3,0.9,6.3,1.7v12.2c-1.8-0.7-3.6-1.2-5.4-1.5c-1.8-0.2-3.8-0.3-5.9-0.3c-6.5,0-11.4,1.7-14.9,5.1
		s-5.2,8.7-5.2,15.9v11.3H449v12.2h-35.1v106.1H414.1z"/>
	<path class="st1" d="M535.4,423.8c-11.6,0-22.3-2.1-32.2-6.3s-18.6-10-26-17.6c-7.4-7.5-13.2-16.4-17.3-26.7
		c-4.1-10.3-6.2-21.5-6.2-33.6c0-12,2-23.1,6-33.2s9.6-19,16.8-26.8c7.2-7.7,15.7-13.7,25.5-17.9c9.8-4.2,20.6-6.3,32.3-6.3
		c14.1,0,26.5,2.6,37.1,7.9c10.6,5.3,19.5,12.3,26.6,21.2c7,8.9,12.1,18.8,15.1,29.7H594c-2.3-8.1-6-15.4-11.3-22.1
		c-5.3-6.6-12-11.8-20.1-15.8c-8.2-3.9-17.7-5.9-28.7-5.9c-12.3,0-23.2,3-32.6,8.9c-9.5,5.9-16.8,14.1-22.2,24.4
		c-5.3,10.4-8,22.4-8,36c0,13.2,2.7,25.1,8.1,35.6s13,18.8,22.7,24.8s21.1,9,34,9c11.7,0,21.9-2.3,30.6-6.9
		c8.7-4.6,15.7-11.1,21-19.5s8.7-18.2,10-29.5H534v-13.7h81c0,12.8-1.9,24.3-5.7,34.7c-3.8,10.4-9.3,19.2-16.3,26.7
		c-7.1,7.4-15.4,13.1-25.1,17C558.3,421.9,547.4,423.8,535.4,423.8z"/>
	<path class="st1" d="M680.3,466.4c-9.9,0-18.6-1.7-26.1-5.1s-13.3-8.3-17.4-14.6c-4.1-6.4-6.4-13.9-6.9-22.6H645
		c0.7,9.6,4.1,16.9,10.1,22.1c6,5.1,14.3,7.7,25,7.7c11.8,0,20.8-3,26.8-9.1s9-14.9,9-26.4v-25c-3.6,8.3-8.8,14.7-15.6,19.4
		c-6.8,4.7-14.7,7-23.5,7c-9.9,0-18.6-2.5-26.1-7.4c-7.5-5-13.4-12-17.6-21c-4.2-9.1-6.3-19.6-6.3-31.6s2.1-22.5,6.2-31.5
		c4.1-9,9.9-16,17.4-20.9c7.5-5,16.2-7.4,26.1-7.4c9,0,17,2.4,24,7.2c7,4.8,12.4,11.6,16.3,20.3v-25.2h14.6v115.9
		c0,15.4-4.5,27.4-13.4,35.9C709.1,462.1,696.5,466.4,680.3,466.4z M642.5,359.5c0,14.6,3.3,26,9.8,34.2
		c6.5,8.3,15.4,12.4,26.7,12.4c7.5,0,14-1.9,19.5-5.6s9.8-9,12.9-15.9c3.1-6.8,4.7-14.8,4.7-24c0-14.4-3.3-25.9-10-34.5
		s-15.7-12.9-27.1-12.9c-11.3,0-20.1,4.1-26.7,12.4C645.8,333.8,642.5,345.1,642.5,359.5z"/>
</g>
<g>
	<path class="st1" d="M138.7,655.3H41.3V493.7h24.1v140h73.4v21.6H138.7z"/>
	<path class="st1" d="M177.9,655.3h-22.3V493.7h22.3V655.3z"/>
	<path class="st1" d="M279.6,655.3l-51.1-123.5v123.5h-22.7V493.7h30.4l54.2,131.2l54-131.2H375v161.6h-23V531.5l-51.3,123.8H279.6z
		"/>
	<path class="st1" d="M425.2,655.3h-22.7V536h21.2v19.8c4.1-6.9,9.2-12.3,15.5-16.2s13.6-5.9,21.8-5.9c8.7,0,16.2,2.1,22.6,6.4
		c6.4,4.3,10.9,10.4,13.6,18.3c4.2-7.7,9.7-13.7,16.4-18.1c6.8-4.4,14.7-6.6,23.9-6.6c12.3,0,22.1,3.9,29.4,11.6
		c7.3,7.7,10.9,18.6,10.9,32.7v77.2H555v-70c0-10-2.2-17.8-6.5-23.3c-4.4-5.5-10.7-8.2-18.9-8.2c-5.1,0-9.8,1.4-14.1,4.2
		s-7.7,6.6-10.2,11.6c-2.6,5-3.8,10.7-3.8,17.3v68.4h-22.7v-70c0-10-2.1-17.8-6.4-23.3s-10.6-8.2-19-8.2c-5.3,0-10,1.4-14.3,4.2
		s-7.7,6.6-10.1,11.6c-2.5,5-3.7,10.7-3.7,17.3L425.2,655.3L425.2,655.3z"/>
	<path class="st1" d="M710.9,655.3l-80.8-120.8v120.8h-26.3V493.7h31.1L713,610.3V493.7h26.3v161.6L710.9,655.3L710.9,655.3z"/>
	<path class="st1" d="M791.9,588.6v66.6h-26.1V535.5h24.1v18.9c4.2-6.4,9.5-11.6,15.9-15.4c6.4-3.8,13.7-5.7,21.9-5.7
		c12.2,0,21.9,3.9,29.4,11.6c7.4,7.7,11.1,18.7,11.1,33v77.4h-26.1v-68.6c0-9.6-2-17-6-22.3c-4-5.2-9.9-7.9-17.9-7.9
		c-4.8,0-9.2,1.3-13.3,3.8c-4.1,2.6-7.2,6.2-9.6,10.9C793.1,575.9,791.9,581.8,791.9,588.6z"/>
	<path class="st1" d="M966.5,658.6c-11.7,0-22.5-2.1-32.5-6.3s-18.7-10.1-26.2-17.8s-13.3-16.6-17.4-26.9
		c-4.1-10.3-6.2-21.4-6.2-33.4s2.1-23.1,6.2-33.3c4.1-10.2,9.9-19.1,17.4-26.7c7.5-7.6,16.2-13.5,26.2-17.7s20.8-6.3,32.5-6.3
		s22.6,2.1,32.6,6.3c10,4.2,18.8,10.1,26.2,17.7c7.4,7.6,13.2,16.5,17.4,26.7c4.2,10.2,6.3,21.3,6.3,33.3s-2.1,23.1-6.3,33.4
		c-4.2,10.3-10,19.2-17.4,26.9s-16.2,13.6-26.2,17.8C989.1,656.5,978.2,658.6,966.5,658.6z M966.5,632.3c7.9,0,15.1-1.5,21.6-4.5
		c6.4-3,11.9-7.2,16.4-12.5s7.9-11.5,10.3-18.6c2.4-7,3.6-14.5,3.6-22.5c0-7.9-1.2-15.4-3.6-22.4c-2.4-7-5.8-13.1-10.3-18.3
		s-10-9.4-16.4-12.4c-6.5-3-13.7-4.5-21.6-4.5c-8,0-15.1,1.5-21.5,4.5s-11.9,7.1-16.4,12.4c-4.6,5.3-8.1,11.4-10.5,18.3
		c-2.4,7-3.6,14.4-3.6,22.4s1.2,15.5,3.6,22.5c2.4,7.1,5.9,13.2,10.5,18.6c4.6,5.3,10,9.5,16.4,12.5S958.6,632.3,966.5,632.3z"/>
	<path class="st1" d="M1117.5,657.5c-8.6,0-16.5-1.6-23.7-4.7c-7.3-3.2-13.6-7.5-19-13.2c-5.4-5.6-9.6-12.2-12.6-19.8
		s-4.5-15.7-4.5-24.4c0-8.8,1.5-17,4.5-24.5s7.2-14.1,12.6-19.8s11.7-10.1,19-13.2c7.3-3.1,15.2-4.6,23.7-4.6
		c8.7,0,16.7,1.5,23.9,4.6c7.2,3.1,13.5,7.5,18.9,13.2s9.6,12.3,12.6,19.8s4.5,15.7,4.5,24.5c0,8.7-1.5,16.8-4.5,24.4
		c-3,7.6-7.2,14.2-12.6,19.8s-11.7,10-18.9,13.2C1134.2,655.9,1126.2,657.5,1117.5,657.5z M1117.5,633.7c5.8,0,11.2-1.5,16.1-4.6
		s8.7-7.5,11.6-13.2c2.8-5.7,4.3-12.5,4.3-20.5c0-8.1-1.4-15-4.3-20.6s-6.7-9.9-11.6-12.9s-10.2-4.5-16.1-4.5s-11.2,1.5-16,4.5
		s-8.6,7.3-11.5,12.9c-2.9,5.6-4.3,12.5-4.3,20.6c0,8,1.4,14.8,4.3,20.5c2.8,5.7,6.7,10.1,11.5,13.2
		C1106.3,632.1,1111.7,633.7,1117.5,633.7z"/>
</g>
<g>
	<path class="st2" d="M103.2,892.5c-11.4,0-21.8-2.2-31.1-6.6c-9.3-4.4-16.7-10.5-22.1-18.1c-5.4-7.7-8.3-16.4-8.8-26.3h31.3
		c0.6,4.8,2.3,9,5,12.5s6.2,6.2,10.6,8c4.3,1.8,9.3,2.7,14.9,2.7c7.3,0,13.2-1.3,17.6-3.8c4.3-2.5,7.6-5.9,9.8-10s3.3-8.5,3.3-13.2
		c0-4.5-1.2-8.8-3.5-12.8s-5.8-7.4-10.4-10s-10.4-3.9-17.4-3.9c-6.8,0-12.7,1.4-17.9,4c-5.2,2.7-9.2,6.8-12,12.4l-25.4-8.1L62,728.6
		h93.8v27.9H84.3l-5.9,36c4.3-2.8,9-4.9,13.8-6.2c4.9-1.3,10-1.9,15.4-1.9c12.9,0,23.6,2.6,32.2,7.7c8.6,5.1,15,11.7,19.2,19.8
		c4.3,8.1,6.4,16.7,6.4,25.9c0,6.9-1.3,13.6-3.9,20.1c-2.6,6.5-6.6,12.4-11.8,17.7c-5.3,5.3-11.7,9.4-19.5,12.5
		C122.6,891,113.5,892.5,103.2,892.5z"/>
	<path class="st2" d="M239.3,892.1c-12.5,0-23.4-2.4-33-7.3c-9.5-4.9-17-11.4-22.4-19.5s-8.1-16.9-8.1-26.6c0-7.5,0.9-14,2.6-19.6
		c1.7-5.5,4.2-10.8,7.5-15.8s7.2-10.1,11.7-15.5l50.4-59.4h35.3l-48.2,57.2c1.5-0.4,3-0.7,4.4-0.9c1.4-0.1,2.9-0.2,4.4-0.2
		c11.5,0,21.7,2.2,30.5,6.6c8.8,4.4,15.7,10.5,20.7,18.3s7.5,16.9,7.5,27.2c0,10.2-2.7,19.5-8.1,27.9s-12.9,15.1-22.4,20
		C262.7,889.6,251.8,892.1,239.3,892.1z M239.5,866c5.7,0,10.9-1.1,15.5-3.4c4.6-2.3,8.4-5.5,11.3-9.7c2.8-4.2,4.3-9.2,4.3-15.1
		c0-6.4-1.4-11.8-4.3-16.1s-6.6-7.5-11.3-9.7s-9.8-3.3-15.5-3.3c-5.6,0-10.7,1-15.5,3s-8.6,5.2-11.5,9.5s-4.3,9.7-4.3,16.3
		c0,6,1.4,11.1,4.3,15.3c2.8,4.2,6.7,7.4,11.5,9.7C228.8,864.8,234,866,239.5,866z"/>
	<path class="st2" d="M416.4,746.7l-63,143.3h-33.3l61.7-133.7h-81.2v-27.9h115.9v18.3H416.4z"/>
	<path class="st2" d="M548.2,843.7c0,9.5-2.6,17.8-7.9,25.1c-5.3,7.3-12.6,13-22.1,17.2s-20.5,6.3-33.1,6.3
		c-12.8,0-23.9-2.1-33.4-6.3s-16.9-9.9-22.2-17.2c-5.3-7.3-7.9-15.6-7.9-25.1c0-6.1,1.2-11.6,3.7-16.3s5.9-8.9,10.2-12.5
		c4.3-3.6,9.3-6.5,14.9-8.8c-4.5-2.3-8.4-5-11.8-8.2s-6.1-7-8.1-11.4c-2-4.3-3-9.1-3-14.2c0-8.8,2.4-16.7,7.3-23.6
		c4.9-6.9,11.7-12.3,20.4-16.3c8.7-4,18.7-6,29.9-6s21.2,2,29.8,6c8.6,4,15.3,9.4,20.1,16.3c4.8,6.9,7.2,14.8,7.2,23.6
		c0,7.8-2.1,14.6-6.4,20.3c-4.3,5.7-9.7,10.2-16.3,13.5c5.4,2.3,10.3,5.2,14.6,8.8s7.8,7.8,10.2,12.5
		C547,832.1,548.2,837.5,548.2,843.7z M453.7,843c0,5.1,1.3,9.5,3.9,13.2s6.3,6.5,11,8.4c4.7,2,10.2,2.9,16.5,2.9s11.8-1,16.4-2.9
		s8.3-4.8,10.9-8.4c2.6-3.7,3.9-8.1,3.9-13.2c0-5-1.3-9.2-3.9-12.7c-2.6-3.5-6.3-6.3-10.9-8.2c-4.7-1.9-10.1-2.9-16.4-2.9
		s-11.8,1-16.5,2.9c-4.7,2-8.4,4.7-11,8.2C455.1,833.8,453.7,838.1,453.7,843z M459.8,773.5c0,6.5,2.3,11.6,7,15.3
		c4.6,3.8,10.8,5.6,18.5,5.6s13.8-1.9,18.3-5.6c4.6-3.7,6.9-8.8,6.9-15.3c0-7-2.3-12.5-6.9-16.4s-10.7-5.8-18.3-5.8
		s-13.8,2-18.5,5.8C462.1,761,459.8,766.4,459.8,773.5z"/>
	<path class="st2" d="M625.4,726.5c12.4,0,23.4,2.4,32.9,7.3c9.5,4.9,16.9,11.4,22.3,19.5c5.4,8.1,8.1,17,8.1,26.8
		c0,6.6-0.8,12.6-2.3,18s-3.8,10.7-7,15.9s-7.4,10.8-12.8,17l-50.2,59h-35.1l47.9-57.4c-1.7,0.5-3.2,0.8-4.7,1s-3.1,0.3-4.7,0.3
		c-11.1,0-21-2.2-29.8-6.6c-8.8-4.4-15.7-10.6-20.7-18.5s-7.5-16.9-7.5-27.1c0-10.3,2.7-19.7,8.1-28c5.4-8.3,12.9-15,22.5-19.9
		C601.9,728.9,613,726.5,625.4,726.5z M625.2,752.6c-5.7,0-10.9,1.1-15.6,3.4s-8.5,5.5-11.4,9.7s-4.3,9.3-4.3,15.3
		c0,6.2,1.4,11.4,4.3,15.6c2.8,4.3,6.6,7.5,11.4,9.8s9.9,3.4,15.6,3.4c5.5,0,10.7-1,15.4-3.2c4.7-2.1,8.5-5.3,11.4-9.6
		c2.8-4.3,4.3-9.6,4.3-16.1c0-6-1.4-11.1-4.3-15.3c-2.9-4.2-6.6-7.4-11.4-9.7C635.9,753.7,630.7,752.6,625.2,752.6z"/>
</g>
<g>
	<path class="st1" d="M834.7,836H807v54h-30.6V728.5h58.3c12.7,0,23.8,2,33.1,6.1c9.3,4,16.5,10,21.6,17.9s7.7,17.6,7.7,29.1
		c0,11.6-2.6,21.4-7.7,29.5c-5.1,8.1-12.3,14.3-21.6,18.6C858.4,833.9,847.4,836,834.7,836z M834.4,754.1H807v56.3h27.5
		c10.2,0,18.1-2.5,23.7-7.7c5.6-5.1,8.4-12.1,8.4-20.9c0-8.8-2.8-15.7-8.4-20.5C852.5,756.5,844.6,754.1,834.4,754.1z"/>
	<path class="st1" d="M1030.4,830c0,12-2.2,22.7-6.6,32.1c-4.4,9.4-10.6,16.8-18.5,22.2s-17.2,8.1-28,8.1c-7.5,0-14.4-1.7-20.6-5.1
		c-6.2-3.4-11.6-8.2-16.1-14.5v60.8h-27.9V770.1h25.7v19.4c4.5-6.9,10.1-12.2,16.9-16c6.8-3.7,14.1-5.6,22.1-5.6
		c10.6,0,19.9,2.7,27.9,8.1c7.9,5.4,14.1,12.8,18.6,22.3C1028.2,807.7,1030.4,818.3,1030.4,830z M1001.6,830c0-12-3-21.2-8.9-27.7
		c-5.9-6.4-13.1-9.7-21.5-9.7c-5.6,0-10.7,1.5-15.3,4.4c-4.7,2.9-8.4,7.1-11.1,12.6c-2.8,5.5-4.2,12.3-4.2,20.6
		c0,8,1.4,14.7,4.2,20.4c2.8,5.6,6.5,9.9,11.1,12.7c4.6,2.9,9.7,4.3,15.3,4.3c8.4,0,15.6-3.2,21.5-9.6
		C998.7,851.6,1001.6,842.3,1001.6,830z"/>
	<path class="st1" d="M1121.3,893.4c-11.7,0-22.5-2.1-32.5-6.3s-18.7-10.1-26.2-17.8s-13.4-16.6-17.6-26.9
		c-4.2-10.3-6.3-21.4-6.3-33.4s2.1-23.1,6.3-33.3c4.2-10.2,10-19.1,17.6-26.7c7.5-7.6,16.2-13.5,26.2-17.7s20.8-6.3,32.5-6.3
		s22.6,2.1,32.6,6.3s18.8,10.1,26.2,17.7c7.4,7.6,13.2,16.5,17.4,26.7c4.2,10.2,6.3,21.3,6.3,33.3s-2.1,23.1-6.3,33.4
		c-4.2,10.3-10,19.2-17.4,26.9s-16.2,13.6-26.2,17.8C1143.9,891.3,1133,893.4,1121.3,893.4z M1121.3,865.3c7.6,0,14.6-1.4,20.8-4.3
		c6.2-2.8,11.5-6.9,15.9-12c4.3-5.2,7.7-11.2,10-18s3.5-14.1,3.5-21.9c0-7.8-1.2-15.1-3.5-21.8c-2.3-6.8-5.7-12.7-10-17.8
		c-4.4-5.1-9.6-9.1-15.9-11.9c-6.2-2.8-13.2-4.3-20.8-4.3c-7.7,0-14.6,1.4-20.8,4.3c-6.2,2.9-11.6,6.8-16,11.9
		c-4.4,5.1-7.8,11-10.1,17.8c-2.3,6.8-3.5,14-3.5,21.8s1.2,15.1,3.5,21.9c2.3,6.8,5.7,12.8,10.1,18s9.7,9.2,16,12
		C1106.7,863.9,1113.7,865.3,1121.3,865.3z M1155.3,866.4l35.6,64.6h-31.7l-32-56.7L1155.3,866.4z"/>
	<path class="st1" d="M1212,830c0-11.7,2.2-22.3,6.6-31.7c4.4-9.5,10.6-16.9,18.7-22.3c8-5.4,17.4-8.1,28-8.1
		c7.9,0,15.2,1.8,21.8,5.5c6.6,3.7,12.2,9,16.7,15.9v-19.1h26.3v163.4h-28.6v-60.3c-4.4,6.2-9.6,10.9-15.9,14.2
		c-6.2,3.3-13,5-20.4,5c-10.7,0-20-2.7-28-8.1c-8-5.4-14.3-12.8-18.7-22.2C1214.2,852.7,1212,842,1212,830z M1241.7,830
		c0,12,2.9,21.1,8.7,27.3c5.8,6.2,12.9,9.3,21.3,9.3c5.5,0,10.6-1.4,15.1-4.2s8.1-6.9,10.8-12.4c2.7-5.5,4-12.1,4-19.9
		c0-12-2.9-21.2-8.8-27.5c-5.8-6.3-12.9-9.5-21.2-9.5c-8.4,0-15.5,3.2-21.3,9.5C1244.6,809,1241.7,818.1,1241.7,830z"/>
	<path class="st1" d="M1388.2,890h-32.4V728.5h62.8c20.1,0,35.7,4.5,46.8,13.5c11.1,9,16.7,21.8,16.7,38.5c0,11.1-3.3,20.8-9.8,29
		c-6.5,8.3-15.6,14.2-27.1,17.8L1487,890h-38.5l-37.1-57.8h-23.2L1388.2,890L1388.2,890z M1388.2,755.3v50.2h28.8
		c10.6,0,18.8-2.1,24.3-6.2c5.5-4.1,8.3-10.4,8.3-18.8c0-8.4-2.8-14.7-8.3-18.9c-5.6-4.2-13.7-6.3-24.3-6.3H1388.2z"/>
	<path class="st1" d="M1530.4,831.1v59h-29.5V769.9h27v23.6c4.5-7.7,11-13.7,19.6-18.1c8.5-4.4,17.6-6.6,27.2-6.6v30.6
		c-8.7-0.6-16.4-0.1-23.1,1.6c-6.7,1.7-11.9,4.9-15.6,9.7C1532.3,815.4,1530.4,822.2,1530.4,831.1z"/>
	<path class="st1" d="M1712,839.9c0,10.2-2.6,19.2-7.9,27.1c-5.3,7.9-12.7,14.1-22.4,18.6c-9.7,4.5-21.3,6.8-35,6.8
		c-13.5,0-25.2-2.3-35.2-6.9c-10-4.6-17.8-11.1-23.5-19.5s-9-18.3-9.9-29.7h34.7c0.5,9,3.5,16.1,9.1,21.4c5.6,5.3,13.7,7.9,24.2,7.9
		c5.8,0,11-0.8,15.4-2.5c4.4-1.6,7.9-4,10.5-7.2c2.5-3.2,3.8-6.8,3.8-11c0-5.1-1.9-9.2-5.6-12.3c-3.8-3.1-9.1-5.3-16-6.6l-26.6-5.2
		c-6.2-1-11.9-2.8-17.1-5.2c-5.3-2.4-9.8-5.4-13.7-9c-3.9-3.6-7-7.9-9.2-13c-2.3-5.1-3.4-10.9-3.4-17.6c0-9.6,2.6-18.1,7.8-25.7
		c5.2-7.5,12.3-13.3,21.4-17.6c9.1-4.2,19.5-6.3,31.2-6.3c12.2,0,23,2.3,32.4,6.8s17.1,10.8,23,19s9.1,17.9,9.7,29.1H1675
		c-0.3-5.7-1.8-10.7-4.4-15s-6.1-7.6-10.5-9.9c-4.4-2.3-9.4-3.5-15.1-3.5c-5.6,0-10.2,0.9-14.1,2.8c-3.8,1.9-6.8,4.4-8.9,7.4
		c-2.1,3.1-3.2,6.6-3.2,10.5c0,3.6,1,6.6,3,9s4.7,4.3,8,5.7s6.9,2.5,10.8,3.3l27.7,5.6c14.3,2.9,25.1,7.7,32.5,14.5
		C1708.2,818.7,1712,828,1712,839.9z"/>
	<path class="st1" d="M1830.3,851.6c0,12.5-4.6,22.4-13.8,29.7c-9.2,7.4-22.4,11-39.5,11c-17,0-30.2-3.9-39.7-11.6
		c-9.5-7.7-14.9-18.3-16.1-31.6h29.9c0.1,6.2,2.7,11.1,7.5,14.7c4.9,3.7,11.1,5.5,18.8,5.5c6.1,0,11.3-1,15.3-3
		c4.1-2,6.1-5.1,6.1-9.3c0-3.7-1.3-6.6-3.8-8.6c-2.6-1.9-6.8-3.4-12.6-4.5l-21.6-4c-10.8-1.9-19.3-5.9-25.4-11.7
		c-6.2-5.9-9.2-13.4-9.2-22.7c0-7.5,2-14.1,6.1-19.8s9.8-10.1,17.1-13.3c7.3-3.2,16-4.7,25.9-4.7c10,0,18.9,1.7,26.7,5.1
		c7.7,3.4,13.9,8.2,18.5,14.5s7.2,13.7,8,22.3h-29.9c-0.5-5.9-2.8-10.5-7-13.8c-4.2-3.4-9.6-5.1-16.2-5.1c-5.7,0-10.3,1-13.8,3
		s-5.3,5-5.3,8.9c0,3.6,1.3,6.3,3.8,8s6.5,3.1,11.9,4.2l23.2,4.3c11.7,2.3,20.5,6.1,26.4,11.5
		C1827.3,835.8,1830.3,842.9,1830.3,851.6z"/>
	<path class="st1" d="M1923,890h-36.7V761.6h-50.6v-33.1h137.9v33.1H1923V890z"/>
	<path class="st1" d="M2061.8,857.4v29c-3.9,2.3-7.8,3.8-11.8,4.6s-8.4,1.2-13.2,1.2c-8.6,0-15.9-1.6-22.1-4.8s-10.9-8-14.3-14.3
		s-5.1-14-5.1-23v-51.8h-23.6v-28.8h23.6v-35.6h33.3v35.6h34v28.8h-34v44.1c0,6.6,1.5,11.4,4.4,14.4s7.2,4.5,12.7,4.5
		c3,0,5.9-0.3,8.7-1C2057.3,859.8,2059.7,858.8,2061.8,857.4z"/>
</g>
<g>
	<path class="st1" d="M174.3,963.3v100.1c0,12.8-2.6,24-7.8,33.8s-12.7,17.4-22.6,22.8c-9.9,5.5-21.9,8.2-36,8.2
		c-14.3,0-26.3-2.7-36.2-8.2s-17.4-13.1-22.6-22.8c-5.2-9.7-7.8-21-7.8-33.8V963.3h34.2v100.8c0,6.6,1.1,12.5,3.4,17.6
		s5.7,9,10.5,11.8c4.7,2.8,10.9,4.2,18.6,4.2c7.5,0,13.6-1.4,18.3-4.2c4.7-2.8,8.2-6.7,10.5-11.8c2.3-5.1,3.4-10.9,3.4-17.6V963.3
		H174.3z"/>
	<path class="st1" d="M271.7,1074.2v-69.5h31.1v120.2h-28.6v-15.8c-3.1,5.3-7.9,9.6-14.2,12.9s-13.3,5.1-20.9,5.1
		c-8,0-15.1-1.7-21.4-5s-11.3-8.4-14.9-15.2c-3.6-6.8-5.4-15.4-5.4-25.8v-76.5h31.3v70.4c0,8.4,1.9,14.6,5.7,18.5s8.9,5.9,15.2,5.9
		c3.7,0,7.3-1,10.7-2.9s6.1-4.8,8.2-8.7C270.7,1084,271.7,1079.5,271.7,1074.2z"/>
	<path class="st1" d="M468.1,963.3l-58.3,161.6h-39.2l-58.1-161.6h38.9l39.8,119.7l40.7-119.7H468.1z"/>
	<path class="st1" d="M584.2,1004.5l-43.9,120.4h-36L460,1004.5h35.6l27.5,83.3l28.1-83.3L584.2,1004.5L584.2,1004.5z"/>
	<path class="st1" d="M717,1124.8l-29-109.1l-28.8,109.1h-37.4l-41.2-161.6h35.8l25,105.5l28.4-105.5h37.4l27.5,106l25.2-106h35.8
		l-41.4,161.6H717z"/>
	<path class="st1" d="M902.2,1124.8l-21.4-75.2l-21.6,75.2h-33.3l-34.2-120.4h32.6l19.4,73.1l20.7-73.1h33.3l20,73.1l19.1-73.1h32.9
		l-34.4,120.4H902.2z"/>
	<path class="st1" d="M1015.1,1124.8h-45.2l50.2-82.4l-44.6-79.2h44.6l29.3,55.6l31.3-55.6h42.8l-46.1,80.6l49.3,81h-45.5
		l-32.9-58.1L1015.1,1124.8z"/>
	<path class="st1" d="M1166.8,1124.8h-38.9l39.8-61.4l-37.1-59.2h40.5l22.3,40.1l22.5-40.1h36.9l-36.7,60.8l39.4,59.9h-39.6
		l-25-41.4L1166.8,1124.8z"/>
	<path class="st1" d="M1390.9,1124.8l-27.5-104.2l-27.5,104.2h-40.5l-41.2-161.6h39.2l23.2,100.4l26.8-100.4h40.5L1410,1064
		l23.2-100.8h39.4l-41.4,161.6L1390.9,1124.8L1390.9,1124.8z"/>
	<path class="st1" d="M1577.9,1124.8l-19.8-71.6l-19.8,71.6h-36.5l-34-120.8h35.3l18,69.3l19.1-69.3h36.2l18.2,69.3l17.8-69.3h35.8
		l-34.4,120.8H1577.9z"/>
	<path class="st1" d="M1785.1,1124.8h-131.6v-34l77.2-90.9h-78.1v-36.7h130.3v34.7l-77.6,90.2h79.9v36.7H1785.1z"/>
	<path class="st1" d="M1903.9,1124.8h-106v-31.7l56.5-55.6h-57.8v-33.8h106v32.4l-57.2,54.9h58.5V1124.8z"/>
</g>
<g>
	<path class="st1" d="M1291,420.5h-16.9V258.9h16.9v70.9h91.8v-70.9h16.9v161.6h-16.9v-76.1H1291V420.5z"/>
	<path class="st1" d="M1445.1,351.4v69.1h-15.8V258.9h15.8v64.8c3.6-7,8.7-12.8,15.3-17.3c6.6-4.5,14.2-6.8,22.7-6.8
		c12.3,0,22.2,3.8,29.6,11.5c7.4,7.6,11.1,18.5,11.1,32.4v77H1508v-71.6c0-11.4-2.5-20.2-7.5-26.3c-5-6.1-12.4-9.2-22.2-9.2
		c-6.2,0-11.8,1.6-16.9,4.8c-5.1,3.2-9.1,7.7-12,13.4C1446.6,337.3,1445.1,343.9,1445.1,351.4z"/>
	<path class="st1" d="M1572.9,420.5H1552V258.9h20.9V420.5z"/>
	<path class="st1" d="M1625.8,274c0,3.9-1.4,7.1-4.1,9.7s-6.2,3.8-10.6,3.8c-4.2,0-7.7-1.3-10.5-3.8s-4.2-5.8-4.2-9.7
		c0-3.9,1.4-7.1,4.2-9.6c2.8-2.5,6.3-3.7,10.5-3.7c4.3,0,7.9,1.2,10.6,3.7S1625.8,270.1,1625.8,274z M1620.8,420.5h-19.1v-119h19.1
		V420.5z"/>
	<path class="st1" d="M1746.8,258.9V366c0,12.2-2.3,22.5-6.8,31.2c-4.5,8.6-10.9,15.2-19.2,19.8c-8.3,4.6-18.3,6.9-29.8,6.9
		c-11.1,0-20.7-2.2-28.9-6.6c-8.2-4.4-14.6-10.6-19.1-18.6c-4.6-7.9-7.1-17.2-7.5-27.9h20.9c0.3,7.2,1.9,13.4,4.7,18.6
		c2.8,5.2,6.8,9.1,11.9,11.8c5.1,2.7,11.1,4,18,4c7.2,0,13.4-1.4,18.7-4.2c5.2-2.8,9.3-7,12-12.7c2.8-5.7,4.2-12.7,4.2-21.2V258.9
		H1746.8z"/>
	<path class="st1" d="M1793.6,301.4V429c0,8.2-1.5,15.1-4.4,20.7c-2.9,5.5-7,9.7-12.3,12.4c-5.3,2.7-11.3,4.1-18.2,4.1
		c-2.3,0-4.7-0.1-7.3-0.3c-2.6-0.2-5.3-0.9-8-1.9v-17.8c2.1,0.7,4.2,1.3,6.3,1.7c2.1,0.4,4.4,0.6,6.8,0.6c5.4,0,9.7-1.5,13.1-4.6
		c3.3-3.1,5-8.1,5-15.2V301.4H1793.6z M1798.6,274c0,3.9-1.4,7.1-4.1,9.7s-6.2,3.8-10.6,3.8c-4.2,0-7.7-1.3-10.5-3.8
		s-4.2-5.8-4.2-9.7c0-3.9,1.4-7.1,4.2-9.6c2.8-2.5,6.3-3.7,10.5-3.7c4.3,0,7.9,1.2,10.6,3.7S1798.6,270.1,1798.6,274z"/>
	<path class="st1" d="M1845.4,420.5H1822V258.9h23.4v75.4l69.8-75.4h27l-73.4,79.4l75.2,82.1h-29l-69.5-75.2L1845.4,420.5
		L1845.4,420.5z"/>
	<path class="st1" d="M1980.2,420.5h-21.4V258.9h21.4V355l52.2-53.8h25.2l-56,58.1l61.2,61.2h-27.7l-54.9-56.5L1980.2,420.5
		L1980.2,420.5z"/>
</g>
<g>
	<path class="st2" d="M1530.6,491.7c19.5,0,34.5,7.2,45.1,21.5s15.9,34.9,15.9,61.8c0,26.7-5.2,47.2-15.6,61.4
		c-10.4,14.3-25.5,21.4-45.3,21.4s-34.9-7.1-45.3-21.4c-10.4-14.3-15.6-34.7-15.6-61.4c0-26.8,5.3-47.4,15.9-61.8
		C1496.1,498.8,1511.1,491.7,1530.6,491.7z M1530.6,511.9c-12.2,0-21.5,5.4-28,16.1s-9.8,26.4-9.8,46.9c0,20.4,3.2,35.9,9.7,46.5
		c6.4,10.6,15.8,15.9,28.1,15.9c12.3,0,21.7-5.3,28.1-15.9c6.4-10.6,9.7-26.1,9.7-46.5c0-20.5-3.2-36.2-9.7-46.9
		C1552.3,517.3,1542.9,511.9,1530.6,511.9z"/>
	<path class="st2" d="M1655.9,655.3h-22.7V513.5h-32.6v-19.8h55.4v161.6H1655.9z"/>
	<path class="st2" d="M1788.5,635v20.3h-106v-13.1l52.4-55.1c8.2-8.7,14.9-16.6,20-23.6s7.6-14.8,7.6-23.2c0-5.4-1.2-10.2-3.7-14.5
		s-6-7.7-10.6-10.1c-4.6-2.5-10-3.7-16.3-3.7s-11.8,1.2-16.5,3.7s-8.4,6-11,10.6s-3.9,9.9-3.9,16.1h-22.3c0.1-10,2.7-18.9,7.5-26.6
		c4.9-7.7,11.4-13.6,19.6-17.8c8.2-4.2,17.5-6.3,28-6.3c10.8,0,20.2,2.1,28.1,6.3c7.9,4.2,14.1,9.8,18.3,16.7
		c4.3,6.9,6.4,14.5,6.4,22.7c0,7.5-1.5,14.4-4.4,20.8c-2.9,6.4-6.9,12.6-11.9,18.8s-10.9,12.7-17.7,19.6l-35.1,38.5h71.5V635z"/>
	<path class="st2" d="M1863.4,657.5c-11.3,0-21.2-2-29.9-6.1c-8.7-4-15.6-9.7-20.6-16.9s-7.6-15.4-7.8-24.8h22.1
		c0.6,8.9,4.2,16,10.7,21.4s15.1,8.1,25.8,8.1c10.9,0,19.6-2.6,25.9-7.9c6.3-5.2,9.5-12.4,9.5-21.4c0-8.7-3.5-15.6-10.6-20.8
		s-16.6-7.8-28.6-7.8h-17.1v-18.2h16.2c6.4,0,12.1-1.1,17-3.4c4.9-2.3,8.7-5.4,11.4-9.6c2.7-4.1,4-8.8,4-14.1
		c0-5.2-1.2-9.8-3.7-13.7s-5.9-7-10.4-9.2c-4.4-2.3-9.6-3.4-15.4-3.4c-9,0-16.2,2.5-21.7,7.5s-8.4,11.7-8.9,20.1h-22.1
		c0.3-8.8,2.8-16.7,7.5-23.6c4.7-6.9,11.1-12.3,19.1-16.3s17-6,26.9-6c10.5,0,19.7,1.8,27.5,5.4s13.8,8.6,18.1,15.1
		c4.3,6.5,6.4,14,6.4,22.5c0,7.8-2.3,14.8-7,21s-11.3,11.4-20,15.4c10.8,2.9,19.3,7.7,25.4,14.4c6.1,6.8,9.2,14.8,9.2,24.1
		c0,9.5-2.5,17.8-7.4,25.1c-5,7.3-11.9,12.9-20.7,16.9C1885.4,655.5,1875.1,657.5,1863.4,657.5z"/>
	<path class="st2" d="M2062.7,619H2040v36.2h-22.7V619h-80.8v-15.8l86.4-109.6h17.1v105.8h22.7V619z M1962.4,599.5h54.9v-71.3
		L1962.4,599.5z"/>
</g>
</svg>
