<?xml version="1.0" encoding="utf-8"?>
<!-- Generator: Adobe Illustrator 22.0.0, SVG Export Plug-In . SVG Version: 6.00 Build 0)  -->
<svg version="1.1" id="logotype" xmlns="http://www.w3.org/2000/svg" xmlns:xlink="http://www.w3.org/1999/xlink" x="0px" y="0px"
	 viewBox="0 0 1200 800" style="enable-background:new 0 0 1200 800;" xml:space="preserve">
<style type="text/css">
	.st0{fill:#131215;}
	.st1{fill:#FFFFFF;}
</style>
<rect id="bg" class="st0" width="1200" height="800"/>
<g id="name">
	<g id="XMLID_1_">
		<rect id="XMLID_4_" x="794.1" y="495.1" class="st1" width="181.6" height="4.7"/>
		<rect id="XMLID_3_" x="224.3" y="495.1" class="st1" width="172.8" height="4.7"/>
	</g>
	<g>
		<path class="st1" d="M417,497.4c0-11.4,8.4-20.2,19.2-20.2c9.7,0,17.5,6.5,19,16.1h-6.3c-1.1-6.3-6.2-10.7-12.6-10.7
			c-7.7,0-13.1,6.2-13.1,14.8c0,8.7,5.4,14.9,13.1,14.9c6.4,0,11.5-4.5,12.6-10.8h6.3c-1.5,9.6-9.2,16.1-19,16.1
			C425.4,517.7,417,508.9,417,497.4z"/>
		<path class="st1" d="M459.1,497.4c0-11.5,8.5-20.2,19.7-20.2c11.3,0,19.7,8.7,19.7,20.2s-8.5,20.3-19.7,20.3
			S459.1,508.9,459.1,497.4z M492.4,497.4c0-8.3-5.4-14.8-13.6-14.8s-13.6,6.5-13.6,14.8s5.4,14.9,13.6,14.9
			C487.1,512.4,492.4,505.8,492.4,497.4z"/>
		<path class="st1" d="M510.2,487.2v29.7h-5.5v-38.8h7.3l13,31.5l13-31.5h7.4v38.8h-5.5v-29.8l-12.3,29.8h-5.1L510.2,487.2z"/>
		<path class="st1" d="M559.8,503.4v13.5h-6v-38.8h13.5c8.7,0,14.3,4.4,14.3,12.6s-5.6,12.8-14.3,12.8h-7.5V503.4z M559.8,483.1
			v15.3h7.5c5.2,0,8.4-2.9,8.4-7.7s-3.2-7.6-8.4-7.6L559.8,483.1L559.8,483.1z"/>
		<path class="st1" d="M587.6,516.9v-38.8h6v33.5h17.6v5.4h-23.6V516.9z"/>
		<path class="st1" d="M616.9,516.9v-38.8h6v38.8H616.9z"/>
		<path class="st1" d="M654.5,507.3h-16.8l-3.6,9.6h-6l14.9-38.8h6.5l14.8,38.8H658L654.5,507.3z M639.5,502.5h13.2l-6.5-17.9
			L639.5,502.5z"/>
		<path class="st1" d="M675.2,486.6v30.3h-5.5v-38.8h6.5l20,29.5v-29.5h5.5v38.8h-6L675.2,486.6z"/>
		<path class="st1" d="M707.8,497.4c0-11.4,8.4-20.2,19.2-20.2c9.7,0,17.5,6.5,19,16.1h-6.3c-1.1-6.3-6.2-10.7-12.6-10.7
			c-7.7,0-13.1,6.2-13.1,14.8c0,8.7,5.4,14.9,13.1,14.9c6.4,0,11.5-4.5,12.6-10.8h6.3c-1.5,9.6-9.2,16.1-19,16.1
			C716.2,517.7,707.8,508.9,707.8,497.4z"/>
		<path class="st1" d="M776.8,516.9h-24.6v-38.8h24.2v5.2h-18.3v11h16.7v5.2h-16.7v12.2h18.7L776.8,516.9L776.8,516.9z"/>
	</g>
</g>
<g>
	<g>
		<rect x="646.7" y="282.3" class="st1" width="25.8" height="30.1"/>
		<polygon class="st1" points="396.6,346.5 432.1,292.8 467.5,346.5 497.5,346.5 455.5,282.3 408.6,282.3 366.6,346.5 		"/>
		<polygon class="st1" points="592.9,397.8 565.8,428.1 538.7,397.8 505.8,397.8 549.4,446.6 582.3,446.6 625.9,397.8 		"/>
		<g id="XMLID_9_">
			<path id="XMLID_10_" class="st1" d="M703.1,446.6V346.5l62.9,57.3l61.8-57.3v100.1h-25v-45.5L766.5,436h-1.2l-37.4-34.9v45.5
				H703.1z"/>
		</g>
	</g>
	<g>
		<g id="XMLID_2_">
			<g id="XMLID_7_">
				<polygon id="XMLID_8_" class="st1" points="910.2,315.3 844.7,415.4 874.7,415.4 910.2,361.7 945.7,415.4 975.7,415.4 				"/>
			</g>
			<g id="XMLID_5_">
				<path id="XMLID_6_" class="st1" d="M224.3,415.4V315.3l62.9,57.3l61.8-57.3v100.1h-25v-45.5l-36.2,34.9h-1.2l-37.4-34.9v45.5
					H224.3z"/>
			</g>
		</g>
		<rect x="646.7" y="330.9" class="st1" width="25.8" height="97.7"/>
		<polygon class="st1" points="366.6,446.6 396.6,446.6 432.1,392.9 467.5,446.6 497.5,446.6 432.1,346.5 		"/>
		<polygon class="st1" points="592.9,282.4 565.8,312.8 538.7,282.4 505.8,282.4 549.4,331.3 505.8,380.1 538.7,380.1 565.8,349.7 
			592.9,380.1 625.9,380.1 582.3,331.3 625.9,282.4 		"/>
		<polygon class="st1" points="780.9,282.3 766,296.2 750.7,282.3 703.1,282.3 703.1,339 727.9,339 727.9,293.5 765.3,328.3 
			766.5,328.3 802.7,293.5 802.7,339 827.7,339 827.7,282.3 		"/>
	</g>
</g>
</svg>
