<?xml version="1.0" encoding="utf-8"?>
<!-- Generator: Adobe Illustrator 22.0.0, SVG Export Plug-In . SVG Version: 6.00 Build 0)  -->
<svg version="1.1" id="Layer_1" xmlns="http://www.w3.org/2000/svg" xmlns:xlink="http://www.w3.org/1999/xlink" x="0px" y="0px"
	 viewBox="0 0 1200 1200" style="enable-background:new 0 0 1200 1200;" xml:space="preserve">
<style type="text/css">
	.st0{fill:#8D8C91;}
	.st1{opacity:5.000000e-02;}
	.st2{fill:#131215;}
	.st3{fill:none;stroke:#8D8C91;stroke-miterlimit:10;}
	.st4{fill:#E50A0A;}
</style>
<g id="XMLID_2_">
	<path class="st0" d="M1199,1v1198H1V1H1199 M1200,0H0v1200h1200V0L1200,0z"/>
</g>
<g class="st1">
	<rect y="310.1" width="148.5" height="148.5"/>
</g>
<g class="st1">
	<rect x="1051.5" y="310.1" width="148.5" height="148.5"/>
</g>
<g class="st1">
	<rect x="1051.5" y="740.5" width="148.5" height="148.5"/>
</g>
<g class="st1">
	<rect y="740.5" width="148.5" height="148.5"/>
</g>
<g>
	<g id="XMLID_5_">
		<rect id="XMLID_7_" x="833.3" y="714.3" class="st2" width="218.2" height="5.6"/>
		<rect id="XMLID_6_" x="148.5" y="714.3" class="st2" width="207.7" height="5.6"/>
	</g>
	<g>
		<path class="st2" d="M380.1,717.1c0-13.7,10.1-24.2,23.1-24.2c11.7,0,21.1,7.8,22.8,19.3h-7.6c-1.3-7.5-7.4-12.9-15.1-12.9
			c-9.2,0-15.7,7.5-15.7,17.8c0,10.5,6.5,17.9,15.7,17.9c7.7,0,13.8-5.4,15.1-12.9h7.6c-1.8,11.6-11.1,19.4-22.8,19.4
			C390.2,741.5,380.1,730.9,380.1,717.1z"/>
		<path class="st2" d="M430.7,717.1c0-13.8,10.2-24.2,23.7-24.2s23.7,10.5,23.7,24.2c0,13.8-10.2,24.4-23.7,24.4
			C440.9,741.5,430.7,730.9,430.7,717.1z M470.7,717.1c0-10-6.4-17.8-16.3-17.8s-16.3,7.8-16.3,17.8s6.4,17.9,16.3,17.9
			C464.3,735,470.7,727.1,470.7,717.1z"/>
		<path class="st2" d="M492.1,704.8v35.7h-6.6v-46.7h8.8l15.7,37.9l15.6-37.9h8.8v46.7h-6.6v-35.8L513,740.5h-6.1L492.1,704.8z"/>
		<path class="st2" d="M551.6,724.2v16.3h-7.2v-46.7h16.2c10.5,0,17.2,5.3,17.2,15.1s-6.8,15.3-17.2,15.3L551.6,724.2L551.6,724.2z
			 M551.6,699.9v18.3h9c6.3,0,10.1-3.4,10.1-9.2s-3.8-9.1-10.1-9.1H551.6z"/>
		<path class="st2" d="M585.1,740.5v-46.7h7.2V734h21.1v6.4L585.1,740.5L585.1,740.5z"/>
		<path class="st2" d="M620.4,740.5v-46.7h7.2v46.7H620.4z"/>
		<path class="st2" d="M665.5,728.9h-20.2l-4.3,11.6h-7.2l17.9-46.7h7.9l17.7,46.7h-7.6L665.5,728.9z M647.5,723.1h15.9l-7.9-21.5
			L647.5,723.1z"/>
		<path class="st2" d="M690.4,704v36.5h-6.6v-46.7h7.8l24,35.5v-35.5h6.6v46.7H715L690.4,704z"/>
		<path class="st2" d="M729.6,717.1c0-13.7,10.1-24.2,23.1-24.2c11.7,0,21.1,7.8,22.8,19.3h-7.6c-1.3-7.5-7.4-12.9-15.1-12.9
			c-9.2,0-15.7,7.5-15.7,17.8c0,10.5,6.5,17.9,15.7,17.9c7.7,0,13.8-5.4,15.1-12.9h7.6c-1.8,11.6-11.1,19.4-22.8,19.4
			C739.6,741.5,729.6,730.9,729.6,717.1z"/>
		<path class="st2" d="M812.5,740.5h-29.6v-46.7H812v6.2h-22v13.3h20v6.2h-20v14.7h22.4L812.5,740.5L812.5,740.5z"/>
	</g>
</g>
<line class="st3" x1="0" y1="458.5" x2="1200" y2="458.5"/>
<line class="st3" x1="0" y1="310.1" x2="1200" y2="310.1"/>
<line class="st3" x1="0" y1="889" x2="1200" y2="889"/>
<line class="st3" x1="0" y1="656" x2="1200" y2="656"/>
<line class="st3" x1="0" y1="693.8" x2="1200" y2="693.8"/>
<line class="st3" x1="0" y1="740.5" x2="1200" y2="740.5"/>
<line class="st3" x1="148.5" y1="0" x2="148.5" y2="1200"/>
<line class="st3" x1="1051.5" y1="0" x2="1051.5" y2="1200"/>
<g>
	<g>
		<rect x="656.2" y="458.5" class="st4" width="31" height="36.2"/>
		<polygon class="st4" points="355.6,535.6 398.2,471.1 440.8,535.6 476.9,535.6 426.4,458.5 370,458.5 319.5,535.6 		"/>
		<polygon class="st4" points="591.5,597.3 559,633.8 526.4,597.3 486.8,597.3 539.2,656 578.8,656 631.2,597.3 		"/>
		<g id="XMLID_10_">
			<path id="XMLID_11_" class="st4" d="M723.9,656V535.7l75.6,68.8l74.2-68.8V656l-30.1,0v-54.7l-43.5,41.9h-1.4l-44.9-41.9V656
				L723.9,656z"/>
		</g>
	</g>
	<g>
		<g id="XMLID_1_">
			<g id="XMLID_8_">
				<polygon id="XMLID_9_" class="st2" points="972.9,498.2 894.2,618.4 930.2,618.4 972.9,553.9 1015.5,618.4 1051.6,618.4 				"/>
			</g>
			<g id="XMLID_3_">
				<path id="XMLID_4_" class="st2" d="M148.5,618.4V498.2l75.6,68.8l74.2-68.8v120.3l-30.1,0v-54.7l-43.5,41.9h-1.4l-44.9-41.9
					v54.7L148.5,618.4z"/>
			</g>
		</g>
		<rect x="656.2" y="516.9" class="st2" width="31" height="117.4"/>
		<polygon class="st2" points="319.5,656 355.6,656 398.2,591.4 440.8,656 476.9,656 398.2,535.7 		"/>
		<polygon class="st2" points="591.5,458.6 559,495.1 526.4,458.6 486.8,458.6 539.2,517.3 486.8,576.1 526.4,576.1 559,539.6 
			591.5,576.1 631.2,576.1 578.8,517.3 631.2,458.6 		"/>
		<polygon class="st2" points="817.5,458.5 799.5,475.2 781.2,458.5 723.9,458.5 723.9,526.6 753.8,526.6 753.8,471.9 798.8,513.8 
			800.2,513.8 843.7,471.9 843.7,526.6 873.8,526.6 873.8,458.5 		"/>
	</g>
</g>
</svg>
